<?xml version="1.0" encoding="UTF-8"?>
<!DOCTYPE svg PUBLIC "-//W3C//DTD SVG 1.1//EN" "http://www.w3.org/Graphics/SVG/1.1/DTD/svg11.dtd">
<svg xmlns="http://www.w3.org/2000/svg" version="1.1" width="750px" height="450px" style="shape-rendering:geometricPrecision; text-rendering:geometricPrecision; image-rendering:optimizeQuality; fill-rule:evenodd; clip-rule:evenodd" xmlns:xlink="http://www.w3.org/1999/xlink">
<g><path style="opacity:1" fill="#fefefe" d="M 714.5,9.5 C 722.999,8.03907 729.166,11.0391 733,18.5C 733.667,155.833 733.667,293.167 733,430.5C 727.199,438.873 719.699,440.707 710.5,436C 708.106,434.048 706.606,431.548 706,428.5C 705.833,308.165 705.333,187.832 704.5,67.5C 647.475,142.358 590.641,217.358 534,292.5C 515.535,312.1 495.702,313.6 474.5,297C 451.634,266.767 429.134,236.267 407,205.5C 410.944,294.787 375.444,363.287 300.5,411C 273.709,425.866 245.043,434.866 214.5,438C 154.263,438.169 94.0963,438.669 34,439.5C 20.7421,439.244 15.0755,432.578 17,419.5C 18.5981,414.901 21.7647,412.068 26.5,411C 90.515,410.948 154.515,410.281 218.5,409C 268.331,401.342 308.831,377.842 340,338.5C 374.672,291.788 386.006,239.788 374,182.5C 360.14,128.986 329.307,88.486 281.5,61C 261.158,50.1624 239.491,43.4957 216.5,41C 159.184,39.5546 101.851,39.0546 44.5,39.5C 44.6667,125.834 44.5,212.167 44,298.5C 41.5635,304.934 36.8968,308.268 30,308.5C 24.0013,307.825 19.668,304.825 17,299.5C 16.5,203.501 16.3333,107.501 16.5,11.5C 82.5008,11.3333 148.501,11.5 214.5,12C 274.306,18.4829 323.139,44.9829 361,91.5C 370.411,103.984 379.078,116.984 387,130.5C 422.333,178.5 457.667,226.5 493,274.5C 496.583,279.251 501.083,280.751 506.5,279C 509.333,276.833 511.833,274.333 514,271.5C 578.91,186.013 643.576,100.346 708,14.5C 710.326,12.9343 712.492,11.2676 714.5,9.5 Z"/></g>
<g><path style="opacity:1" fill="#feeb6d" d="M 386.5,10.5 C 466.5,10.5 546.5,10.5 626.5,10.5C 626.628,12.6547 626.128,14.6547 625,16.5C 586.943,70.8916 549.276,125.558 512,180.5C 510.434,182.993 508.434,184.993 506,186.5C 501.695,181.849 497.695,176.849 494,171.5C 459.58,120.993 424.914,70.6594 390,20.5C 387.272,17.4455 386.105,14.1122 386.5,10.5 Z"/></g>
</svg>
